<?xml version="1.0" encoding="utf-8"?>
<!-- Generator: Adobe Illustrator 14.0.0, SVG Export Plug-In . SVG Version: 6.00 Build 43363)  -->
<!DOCTYPE svg PUBLIC "-//W3C//DTD SVG 1.1//EN" "http://www.w3.org/Graphics/SVG/1.1/DTD/svg11.dtd">
<svg version="1.1" id="Layer_1" xmlns="http://www.w3.org/2000/svg" xmlns:xlink="http://www.w3.org/1999/xlink" x="0px" y="0px"
	 width="612px" height="792px" viewBox="0 0 612 792" enable-background="new 0 0 612 792" xml:space="preserve">
<path fill-rule="evenodd" clip-rule="evenodd" fill="#F0B800" d="M357.373,119.843c0,8.997-3.401,16.532-10.205,22.604
	s-14.844,9.109-24.123,9.109c-9.671,0-17.754-2.994-24.249-8.982c-6.495-5.988-9.742-13.565-9.742-22.731
	c0-9.446,3.317-17.094,9.953-22.942c6.635-5.848,14.648-8.771,24.038-8.771c9.391,0,17.46,2.967,24.207,8.898
	C354,102.96,357.373,110.565,357.373,119.843L357.373,119.843z M333.697,97.914c-2.068-4.498-5.619-6.747-10.652-6.747
	c-2.551,0-4.757,0.643-6.618,1.928c-1.862,1.285-3.292,3.146-4.292,5.582c-1,2.438-1.724,5.569-2.172,9.398
	c-0.447,3.829-0.672,7.752-0.672,11.769c0,5.516,0.275,10.015,0.828,13.495c0.551,3.48,1.585,6.882,3.102,10.202
	c1.517,3.319,4.792,4.979,9.824,4.979c2.552,0,4.758-0.642,6.619-1.927c1.861-1.286,3.292-3.146,4.291-5.583
	c1-2.438,1.725-5.57,2.172-9.399c0.449-3.828,0.674-7.751,0.674-11.768c0-4.766-0.207-8.903-0.621-12.41
	C335.766,103.924,334.938,100.751,333.697,97.914L333.697,97.914z"/>
<g>
	<path fill="#183A8D" d="M297.271,5.89c-76.987,0-139.396,51.363-139.396,114.722s62.409,114.722,139.396,114.722
		s139.396-51.363,139.396-114.722S374.258,5.89,297.271,5.89z M297.271,200.3c-52.383,0-95.106-35.797-95.106-79.688
		c0-43.891,42.724-79.688,95.106-79.688c52.383,0,95.106,35.797,95.106,79.688C392.377,164.503,349.654,200.3,297.271,200.3z"/>
	<path d="M297.271,40.924c-52.383,0-95.106,35.797-95.106,79.688c0,43.892,42.724,79.688,95.106,79.688
		c52.383,0,95.106-35.797,95.106-79.688C392.377,76.721,349.654,40.924,297.271,40.924z M297.271,178.317
		c-39.759,0-72.186-25.922-72.186-57.705s32.427-57.705,72.186-57.705c39.758,0,72.186,25.922,72.186,57.705
		S337.029,178.317,297.271,178.317z"/>
</g>
<path fill-rule="evenodd" clip-rule="evenodd" fill="#F0B800" d="M311.475,141.699c2.491-4.032,15.053-19.231,39.637-18.611
	c16.569,2.586,38.338,14.476,47.758,15.2c-14.295,13.544-34.763,2.895-50.682,0.619C335.3,135.805,323.713,139.838,311.475,141.699
	L311.475,141.699z"/>
<path fill="none" stroke="#FFFFFF" stroke-width="0.6924" stroke-miterlimit="2.6131" d="M309.329,143.946
	c39.044-17.714,61.499,11.717,88.073-3.815c0.422-0.247,3.322-2.416,3.742-2.683"/>
<path fill="none" stroke="#FFFFFF" stroke-width="0.6924" stroke-miterlimit="2.6131" d="M309.329,143.946
	c12.937-9.046,31.978-10.705,44.784-7.941c15.455,3.336,32.244,9.563,43.289,4.126c0.441-0.218,3.322-2.416,3.742-2.683"/>
<path fill="none" stroke="#FFFFFF" stroke-width="0.6924" stroke-miterlimit="2.6131" d="M309.329,143.946
	c10.399-10.574,31.661-14.781,44.466-12.019c15.457,3.335,33.514,10.837,43.607,8.203c0.492-0.129,3.322-2.416,3.742-2.683"/>
<path fill="none" stroke="#FFFFFF" stroke-width="0.6924" stroke-miterlimit="2.6131" d="M309.329,143.946
	c9.132-12.746,31.978-18.813,44.784-16.051c15.455,3.335,35.098,12.387,43.289,11.614c0.525-0.049,3.322-1.795,3.742-2.062"/>
<path fill="none" stroke="#FFFFFF" stroke-width="0.6924" stroke-miterlimit="2.6131" d="M309.329,143.946
	c7.864-14.297,31.661-23.156,44.466-20.394c15.457,3.335,36.051,13.628,43.291,15.337c0.566,0.135,3.639-1.175,4.059-1.441"/>
<polygon fill-rule="evenodd" clip-rule="evenodd" fill="#FFFFFF" points="332.582,126.01 333.873,125.636 330.355,138.144 
	329.064,138.519 332.582,126.01 "/>
<polygon fill-rule="evenodd" clip-rule="evenodd" fill="#FFFFFF" points="353.055,123.94 354.346,123.464 350.828,139.362 
	349.536,139.838 353.055,123.94 "/>
<polygon fill-rule="evenodd" clip-rule="evenodd" fill="#FFFFFF" points="372.906,129.717 374.197,129.292 370.68,143.523 
	369.389,143.948 372.906,129.717 "/>
<path fill="none" stroke="#FFFFFF" stroke-width="1.4148" stroke-miterlimit="2.6131" d="M261.571,124.736l-16.461-26.4
	c-1.833-2.938-3.346-4.864-4.471-5.819c-1.124-0.956-2.586-1.575-4.386-1.856l-2.614-0.253v-1.35h38.813v1.35l-3.542,0.169
	c-1.181,0.112-2.024,0.295-2.531,0.548c-0.506,0.254-0.759,0.773-0.759,1.561c0,0.619,0.112,1.224,0.337,1.813l1.434,2.741
	l7.085,11.809c1.687-2.081,3.317-4.147,4.892-6.199c1.575-2.053,2.938-3.895,4.091-5.524c1.153-1.631,1.729-3.009,1.729-4.133
	c0-1.575-0.717-2.419-2.151-2.531c-1.434-0.112-2.474-0.183-3.121-0.21c-0.646-0.028-1.251-0.043-1.813-0.043v-1.35h22.958
	l0.123,1.35l-1.524,0.169c-1.975,0.219-3.57,0.731-4.808,1.35c-1.237,0.618-2.759,1.858-4.442,3.838l-3.057,3.597l-10.436,13.251
	c3.823,6.241,5.825,9.848,9.199,15.245c3.374,5.398,22.59,35.222,24.727,38.54c2.137,3.317,3.725,5.412,4.766,6.284
	c1.039,0.871,2.445,1.563,4.258,1.729l2.784,0.253v1.35h-38.967v-1.35l3.542-0.169c2.09-0.099,3.121-1.04,3.121-2.445
	c0-1.069-0.484-2.534-1.603-4.302l-24.938-39.408l-6.331,7.827c-2.157,2.666-3.655,4.849-4.724,6.367
	c-1.068,1.519-1.603,2.784-1.603,3.796c0,1.462,0.689,2.277,2.066,2.446c1.378,0.168,2.517,0.267,3.416,0.295
	s1.631,0.07,2.193,0.126v1.351h-26.111v-1.351c0.619,0,1.321-0.014,2.109-0.042c0.787-0.028,1.743-0.112,2.868-0.253
	s2.348-0.534,3.669-1.181s2.98-2.108,4.977-4.386c2.01-2.277,4.603-5.379,7.774-9.32L261.571,124.736L261.571,124.736z"/>
<path fill-rule="evenodd" clip-rule="evenodd" fill="#E20025" d="M261.571,124.736l-16.461-26.4
	c-1.833-2.938-3.346-4.864-4.471-5.819c-1.124-0.956-2.586-1.575-4.386-1.856l-2.614-0.253v-1.35h38.813v1.35l-3.542,0.169
	c-1.181,0.112-2.024,0.295-2.531,0.548c-0.506,0.254-0.759,0.773-0.759,1.561c0,0.619,0.112,1.224,0.337,1.813l1.434,2.741
	l7.085,11.809c1.687-2.081,3.317-4.147,4.892-6.199c1.575-2.053,2.938-3.895,4.091-5.524c1.153-1.631,1.729-3.009,1.729-4.133
	c0-1.575-0.717-2.419-2.151-2.531c-1.434-0.112-2.474-0.183-3.121-0.21c-0.646-0.028-1.251-0.043-1.813-0.043v-1.35h22.958
	l0.123,1.35l-1.524,0.169c-1.975,0.219-3.57,0.731-4.808,1.35c-1.237,0.618-2.759,1.858-4.442,3.838l-3.057,3.597l-10.436,13.251
	c3.823,6.241,5.825,9.848,9.199,15.245c3.374,5.398,22.59,35.222,24.727,38.54c2.137,3.317,3.725,5.412,4.766,6.284
	c1.039,0.871,2.445,1.563,4.258,1.729l2.784,0.253v1.35h-38.967v-1.35l3.542-0.169c2.09-0.099,3.121-1.04,3.121-2.445
	c0-1.069-0.484-2.534-1.603-4.302l-24.938-39.408l-6.331,7.827c-2.157,2.666-3.655,4.849-4.724,6.367
	c-1.068,1.519-1.603,2.784-1.603,3.796c0,1.462,0.689,2.277,2.066,2.446c1.378,0.168,2.517,0.267,3.416,0.295
	s1.631,0.07,2.193,0.126v1.351h-26.111v-1.351c0.619,0,1.321-0.014,2.109-0.042c0.787-0.028,1.743-0.112,2.868-0.253
	s2.348-0.534,3.669-1.181s2.98-2.108,4.977-4.386c2.01-2.277,4.603-5.379,7.774-9.32L261.571,124.736L261.571,124.736z"/>
<path fill-rule="evenodd" clip-rule="evenodd" fill="#F0B800" d="M224.679,101.212l-1.049,3.579l-6.053-1.93l-1.427,4.868
	l6.053,1.93l-1.049,3.578l-13.659-4.354l1.049-3.578l5.001,1.594l1.427-4.868l-5.001-1.594l1.049-3.579L224.679,101.212
	L224.679,101.212z M225.089,99.602L215.947,87.1l2.188-3.382l14.54,4.155l-2.065,3.193l-2.92-0.926l-2.507,3.876l1.919,2.474
	L225.089,99.602L225.089,99.602z M225.104,89.308l-4.716-1.484l3.084,4.006L225.104,89.308L225.104,89.308z M243.054,77.031
	l-3.147,3.169l-6.499-1.051l-0.928,0.935l3.639,3.93l-2.567,2.586l-9.922-10.714l4.134-4.162c0.57-0.574,1.101-1.038,1.591-1.389
	c0.495-0.352,1.029-0.59,1.603-0.718c0.597-0.126,1.176-0.111,1.741,0.052c0.564,0.157,1.117,0.527,1.653,1.106
	c0.76,0.82,1.199,1.664,1.319,2.53c0.117,0.869,0.019,1.751-0.294,2.651L243.054,77.031L243.054,77.031z M232.016,73.783
	c-0.248-0.268-0.514-0.451-0.792-0.546c-0.279-0.095-0.583-0.078-0.909,0.046c-0.229,0.093-0.448,0.229-0.665,0.408
	s-0.47,0.416-0.765,0.713l-0.862,0.868l2.67,2.884l0.737-0.742c0.361-0.363,0.644-0.691,0.851-0.989
	c0.211-0.298,0.332-0.61,0.37-0.933c0.04-0.301,0.016-0.587-0.079-0.856C232.481,74.369,232.296,74.084,232.016,73.783
	L232.016,73.783z M256.4,68.591l-3.06,1.917l-4.875-8.462l0.918,6.858l-2.097,1.313l-5.375-4.065l4.875,8.461l-2.894,1.813
	l-7.356-12.767l3.542-2.219l6.345,4.601l-0.925-7.997l3.544-2.221L256.4,68.591L256.4,68.591z M269.187,55.636
	c0.753,2.279,0.761,4.276,0.026,6.003c-0.736,1.724-2.122,2.95-4.153,3.68c-2.041,0.732-3.856,0.645-5.454-0.26
	c-1.597-0.903-2.768-2.477-3.509-4.724c-0.748-2.263-0.756-4.26-0.029-5.991c0.727-1.73,2.107-2.963,4.147-3.695
	c2.031-0.729,3.848-0.649,5.447,0.24C267.262,51.777,268.436,53.36,269.187,55.636L269.187,55.636z M265.684,56.887
	c-0.277-0.839-0.598-1.526-0.958-2.054c-0.359-0.532-0.742-0.936-1.146-1.214c-0.418-0.279-0.838-0.439-1.258-0.473
	c-0.42-0.036-0.829,0.017-1.222,0.158c-0.415,0.149-0.767,0.362-1.056,0.639c-0.287,0.276-0.524,0.668-0.706,1.178
	c-0.159,0.465-0.224,1.034-0.194,1.698c0.027,0.669,0.179,1.424,0.455,2.26c0.286,0.865,0.603,1.553,0.956,2.065
	c0.353,0.513,0.733,0.91,1.145,1.192c0.42,0.286,0.841,0.449,1.264,0.481c0.424,0.035,0.835-0.019,1.226-0.158
	c0.399-0.144,0.756-0.373,1.075-0.689c0.316-0.313,0.545-0.708,0.693-1.184c0.155-0.515,0.221-1.072,0.199-1.675
	C266.133,58.509,265.975,57.768,265.684,56.887L265.684,56.887z M285.468,59.782l-3.402,0.625l-7.15-9.229l1.729,10.226
	l-3.231,0.594l-2.48-14.667l4.337-0.797l5.906,7.579l-1.421-8.403l3.231-0.594L285.468,59.782L285.468,59.782z M300.012,44.263
	l-4.785,8.761l0.104,6.22l-3.588,0.065l-0.101-6.029l-5.164-8.771l4.086-0.074l2.888,5.265l2.609-5.365L300.012,44.263
	L300.012,44.263z M319.169,56.714c-0.087,0.735-0.296,1.366-0.628,1.887s-0.744,0.934-1.238,1.241
	c-0.584,0.369-1.206,0.603-1.869,0.707c-0.658,0.105-1.479,0.093-2.463-0.033l-5.674-0.727l1.74-14.783l5.008,0.641
	c1.041,0.133,1.825,0.275,2.352,0.428c0.526,0.15,1.01,0.388,1.447,0.712c0.474,0.35,0.809,0.781,1.003,1.288
	c0.194,0.51,0.256,1.075,0.183,1.699c-0.085,0.722-0.332,1.34-0.746,1.858c-0.411,0.519-0.938,0.871-1.577,1.061l-0.009,0.078
	c0.852,0.305,1.508,0.785,1.964,1.445C319.117,54.877,319.287,55.71,319.169,56.714L319.169,56.714z M315.324,50.057
	c0.028-0.24-0.002-0.492-0.09-0.758c-0.087-0.266-0.247-0.472-0.484-0.616c-0.221-0.138-0.49-0.231-0.811-0.283
	c-0.321-0.051-0.799-0.116-1.432-0.197l-0.248-0.031l-0.368,3.127l0.448,0.058c0.608,0.078,1.038,0.126,1.283,0.144
	c0.246,0.018,0.507-0.018,0.781-0.109c0.3-0.103,0.521-0.271,0.656-0.501C315.197,50.656,315.287,50.379,315.324,50.057
	L315.324,50.057z M315.511,56.176c0.054-0.457,0.009-0.824-0.14-1.105c-0.148-0.284-0.393-0.511-0.731-0.688
	c-0.204-0.116-0.497-0.201-0.873-0.26s-0.882-0.127-1.517-0.208l-0.656-0.084l-0.436,3.701l0.191,0.025
	c0.927,0.118,1.567,0.193,1.924,0.226c0.355,0.032,0.73-0.01,1.116-0.128c0.343-0.104,0.602-0.288,0.784-0.55
	C315.357,56.841,315.469,56.533,315.511,56.176L315.511,56.176z M333.229,66.077l-4.205-1.258l-2.377-6.394l-1.24-0.371
	l-1.443,5.252l-3.432-1.026l3.938-14.316l5.523,1.651c0.762,0.228,1.412,0.476,1.949,0.743c0.538,0.271,1.004,0.634,1.396,1.089
	c0.404,0.476,0.68,1.006,0.828,1.597c0.15,0.589,0.12,1.272-0.093,2.047c-0.302,1.096-0.782,1.915-1.442,2.457
	c-0.663,0.541-1.444,0.893-2.349,1.06L333.229,66.077L333.229,66.077z M330.407,54.485c0.099-0.358,0.118-0.689,0.058-0.989
	c-0.061-0.298-0.227-0.564-0.492-0.797c-0.191-0.16-0.414-0.291-0.672-0.396c-0.258-0.105-0.581-0.217-0.975-0.334l-1.152-0.345
	l-1.059,3.854l0.984,0.294c0.482,0.144,0.896,0.236,1.247,0.273c0.353,0.042,0.673-0.005,0.96-0.132
	c0.27-0.115,0.494-0.278,0.672-0.499C330.153,55.197,330.297,54.888,330.407,54.485L330.407,54.485z M340.512,70.086l-6.917-3.518
	l1.095-2.338l1.845,0.938l4.073-8.71l-1.846-0.938l1.094-2.338l6.917,3.518l-1.094,2.338l-1.846-0.938l-4.073,8.71l1.846,0.938
	L340.512,70.086L340.512,70.086z M353.182,77.364c-0.664-0.132-1.483-0.377-2.457-0.731c-0.97-0.355-1.865-0.812-2.681-1.363
	c-1.881-1.274-3.03-2.858-3.443-4.746c-0.411-1.891,0.028-3.877,1.323-5.956c1.22-1.958,2.758-3.147,4.609-3.571
	c1.854-0.423,3.75,0.023,5.691,1.338c1.006,0.681,1.756,1.331,2.262,1.955c0.506,0.623,0.984,1.334,1.442,2.129l-1.823,2.927
	l-0.274-0.187c-0.069-0.214-0.175-0.521-0.313-0.92c-0.133-0.4-0.282-0.762-0.447-1.086c-0.19-0.385-0.439-0.773-0.756-1.17
	c-0.313-0.396-0.69-0.741-1.13-1.038c-0.516-0.35-1.037-0.585-1.565-0.702c-0.526-0.12-1.066-0.119-1.613,0.002
	c-0.527,0.124-1.043,0.377-1.548,0.768c-0.504,0.388-0.97,0.924-1.396,1.607c-0.91,1.461-1.229,2.775-0.957,3.944
	s1.014,2.165,2.233,2.99c0.106,0.073,0.235,0.155,0.381,0.246c0.149,0.093,0.281,0.17,0.396,0.231l1.524-2.448l-2.325-1.575
	l1.457-2.34l5.239,3.549L353.182,77.364L353.182,77.364z M353.729,78.814l13.737-6.477l2.669,2.984L362.98,89.16l-2.52-2.816
	l1.521-2.759l-3.057-3.419l-2.744,1.394L353.729,78.814L353.729,78.814z M363.344,81.145l2.447-4.457l-4.438,2.232L363.344,81.145
	L363.344,81.145z M376.348,98c-1.143,0.716-2.313,1.094-3.516,1.139c-1.2,0.047-2.27-0.18-3.211-0.673
	c-0.794-0.403-1.475-0.96-2.041-1.665c-0.568-0.708-1.105-1.502-1.613-2.383l-2.303-3.995l12.244-7.671l2.283,3.963
	c0.516,0.896,0.945,1.773,1.287,2.624c0.342,0.853,0.5,1.753,0.473,2.703c-0.031,1.162-0.344,2.262-0.936,3.295
	C378.418,96.371,377.529,97.259,376.348,98L376.348,98z M374.473,94.693c0.809-0.507,1.412-1.081,1.818-1.729
	c0.408-0.65,0.6-1.371,0.576-2.177c-0.018-0.579-0.156-1.113-0.41-1.604c-0.252-0.49-0.568-1.068-0.951-1.729l-0.035-0.062
	l-7.664,4.802l0.035,0.062c0.414,0.721,0.775,1.319,1.086,1.798c0.31,0.479,0.727,0.858,1.252,1.135
	c0.621,0.328,1.293,0.453,2.009,0.375C372.905,95.488,373.666,95.198,374.473,94.693L374.473,94.693z M370.864,104.118l13.858-3.604
	l2.338,9.773l-2.645,0.688l-1.473-6.162l-2.43,0.632l1.357,5.679l-2.645,0.688l-1.357-5.679l-3.498,0.909l1.473,6.162l-2.643,0.688
	L370.864,104.118L370.864,104.118z"/>
<path fill-rule="evenodd" clip-rule="evenodd" fill="#F0B800" d="M226.715,145.832l3.219,5.358l-2.482,1.491l-1.627-2.709
	l-2.151,1.293l1.413,2.351l-2.419,1.454l-1.413-2.352l-2.124,1.276l1.638,2.727l-2.491,1.497l-3.23-5.376L226.715,145.832
	L226.715,145.832z M229.931,151.355l2.202,2.623c-1.071,2.044-1.701,3.199-1.889,3.462l0.027,0.032
	c0.083-0.053,0.43-0.176,1.045-0.373l2.685-0.895l2.201,2.624l-7.006,1.753l-3.249,7.201l-2.204-2.626
	c1.259-2.484,1.951-3.809,2.069-3.972l-0.027-0.032c-0.407,0.192-0.836,0.352-1.287,0.48l-2.984,0.868l-2.17-2.587l7.577-1.978
	L229.931,151.355L229.931,151.355z M236.496,159.02l5.302,5.12l-2.159,2.236l-1.532-1.479l-7.296,7.556l-2.253-2.176l7.296-7.556
	l-1.517-1.465L236.496,159.02L236.496,159.02z M242.454,164.617l2.912,2.115c1.177,0.855,1.887,1.831,2.128,2.932
	c0.245,1.103-0.012,2.173-0.767,3.211c-0.388,0.535-0.892,0.957-1.511,1.265c-0.621,0.31-1.271,0.41-1.948,0.305l-1.612,6.418
	l-2.641-1.919l1.622-6.484l-0.04-0.028l-3.644,5.015l-2.5-1.816L242.454,164.617L242.454,164.617z M243.408,168.562l-1.898,2.612
	c1.118,0.783,1.956,0.797,2.503,0.043c0.371-0.51,0.507-0.971,0.41-1.376C244.326,169.435,243.99,169.01,243.408,168.562
	L243.408,168.562z M250.881,170.329l5.358,3.22l-1.491,2.481l-2.709-1.627l-1.292,2.15l2.351,1.412l-1.453,2.42l-2.351-1.413
	l-1.276,2.125l2.727,1.638l-1.497,2.491l-5.375-3.23L250.881,170.329L250.881,170.329z M258.632,174.608l3.567,1.589
	c-0.687,2.909-1.312,5.393-1.88,7.456l1.167-1.792c0.458-0.695,0.918-1.371,1.379-2.02l1.794-2.55l3.641,1.621l-4.122,13.064
	l-2.792-1.242l3.05-8.887l-5.548,7.774l-1.908-0.85l1.99-9.382l-4.543,8.245l-2.674-1.19L258.632,174.608L258.632,174.608z
	 M271.104,179.421l6.009,1.723l-0.798,2.783l-3.038-0.871l-0.691,2.412l2.636,0.757l-0.778,2.713l-2.637-0.756l-0.683,2.382
	l3.058,0.877l-0.801,2.793l-6.029-1.729L271.104,179.421L271.104,179.421z M289.39,194.696l1.104,1.801l-1.899,1.071l-0.939-1.545
	c-0.687,0.28-1.444,0.369-2.284,0.266c-1.63-0.199-2.801-0.979-3.503-2.338c-0.703-1.354-0.91-3.214-0.62-5.577
	c0.267-2.176,0.908-3.822,1.917-4.937c1.009-1.11,2.283-1.574,3.82-1.386c1.641,0.201,2.82,0.967,3.537,2.296
	c0.717,1.326,0.935,3.124,0.657,5.39C290.916,191.888,290.32,193.544,289.39,194.696L289.39,194.696z M285.958,193.205l-1.017-1.685
	l1.878-1.074l0.667,1.109c0.151-0.462,0.293-1.216,0.421-2.259c0.324-2.64-0.101-4.031-1.275-4.175
	c-1.105-0.137-1.818,1.095-2.137,3.692c-0.206,1.672-0.205,2.809,0.006,3.402c0.211,0.594,0.584,0.924,1.117,0.989
	C285.707,193.216,285.819,193.216,285.958,193.205L285.958,193.205z M292.738,183.255l3.168-0.111l0.334,9.579
	c0.016,0.449,0.146,0.799,0.392,1.053c0.249,0.252,0.57,0.373,0.974,0.358c0.414-0.014,0.736-0.164,0.966-0.451
	c0.234-0.286,0.339-0.677,0.322-1.164l-0.331-9.468l3.151-0.109l0.312,8.925c0.042,1.218-0.083,2.196-0.377,2.941
	c-0.294,0.745-0.746,1.301-1.356,1.663c-0.611,0.367-1.471,0.567-2.584,0.606c-1.646,0.057-2.818-0.323-3.519-1.142
	c-0.705-0.818-1.088-2.229-1.158-4.232L292.738,183.255L292.738,183.255z M315.028,195.359l-3.188,0.392l-0.791-2.192l-3.237,0.397
	l-0.262,2.322l-3.126,0.384l1.923-13.95l3.44-0.422L315.028,195.359L315.028,195.359z M310.162,191.202
	c-0.705-1.954-1.282-3.825-1.736-5.614l-0.039,0.005c-0.016,1.898-0.119,3.854-0.317,5.867L310.162,191.202L310.162,191.202z
	 M314.125,181.675l3.492-0.87c1.411-0.352,2.616-0.269,3.614,0.254c1.002,0.521,1.656,1.405,1.967,2.651
	c0.159,0.642,0.159,1.299-0.004,1.971c-0.161,0.675-0.502,1.236-1.017,1.688l3.879,5.359l-3.168,0.79l-3.924-5.409l-0.047,0.011
	l1.498,6.015l-2.998,0.748L314.125,181.675L314.125,181.675z M317.76,183.481l0.782,3.134c1.317-0.354,1.866-0.985,1.642-1.891
	c-0.152-0.61-0.418-1.011-0.791-1.198C319.02,183.339,318.479,183.324,317.76,183.481L317.76,183.481z M323.004,179.508l6.969-2.399
	l1.013,2.938l-2.014,0.693l3.419,9.932l-2.961,1.02l-3.42-9.932l-1.994,0.687L323.004,179.508L323.004,179.508z M331.453,176.57
	l5.711-2.543l1.178,2.646l-2.888,1.286l1.021,2.292l2.506-1.115l1.148,2.578l-2.506,1.115l1.008,2.264l2.906-1.294l1.182,2.655
	l-5.729,2.551L331.453,176.57L331.453,176.57z M338.1,173.721l6.447-3.573l1.507,2.718l-1.862,1.032l5.092,9.188l-2.74,1.519
	l-5.092-9.187l-1.845,1.022L338.1,173.721L338.1,173.721z M345.516,169.558l5.963-4.333l1.826,2.514l-1.723,1.252l6.174,8.498
	l-2.533,1.841l-6.174-8.498l-1.707,1.24L345.516,169.558L345.516,169.558z M352.604,164.232l2.297-2.067l9.107,10.115l-2.297,2.067
	L352.604,164.232L352.604,164.232z M356.602,161.146l2.004-2.389l8.539,2.04l-1.197-0.859l-4.89-4.103l1.986-2.367l10.427,8.749
	l-2.037,2.429l-8.395-2.022l1.353,1.025l4.623,3.879l-1.985,2.368L356.602,161.146L356.602,161.146z M374.055,147.373l1.957,1.176
	c1.516,0.91,2.486,1.99,2.914,3.24c0.426,1.251,0.256,2.513-0.508,3.784c-0.854,1.42-2.051,2.195-3.584,2.329
	c-1.534,0.134-3.295-0.396-5.275-1.587c-1.999-1.2-3.281-2.499-3.854-3.891c-0.568-1.393-0.408-2.835,0.484-4.32
	c1-1.665,2.615-2.339,4.842-2.017l-0.478,3.152c-0.498-0.016-0.892,0.017-1.169,0.094c-0.282,0.077-0.518,0.273-0.705,0.587
	c-0.323,0.537-0.27,1.089,0.157,1.649c0.427,0.562,1.271,1.223,2.53,1.979c1.17,0.702,2.108,1.092,2.81,1.169
	c0.704,0.077,1.222-0.16,1.554-0.715c0.533-0.886,0.174-1.723-1.072-2.513l-0.74,1.232l-2.262-1.359L374.055,147.373
	L374.055,147.373z"/>
<polygon fill-rule="evenodd" clip-rule="evenodd" fill="#F0B800" points="311.65,139.597 312.996,143.045 307.793,145.797 
	306.62,142.658 311.65,139.597 "/>
<g>
	<polygon fill="#FECC0B" points="270.607,203.438 273.338,211.498 281.652,211.498 274.89,216.749 277.492,224.697 270.641,219.573 
		263.784,224.697 266.392,216.749 259.633,211.498 267.898,211.513 	"/>
</g>
<g>
	<polygon fill="#FECC0B" points="323.481,203.438 326.213,211.498 334.526,211.498 327.765,216.749 330.367,224.697 
		323.516,219.573 316.658,224.697 319.267,216.749 312.509,211.498 320.773,211.513 	"/>
</g>
<g>
	<polygon fill="#FECC0B" points="385.222,44.819 387.952,52.879 396.267,52.879 389.505,58.131 392.106,66.079 385.255,60.955 
		378.398,66.079 381.006,58.131 374.248,52.879 382.513,52.895 	"/>
</g>
<g>
	<polygon fill="#FECC0B" points="209.555,44.819 212.286,52.879 220.6,52.879 213.838,58.131 216.44,66.079 209.588,60.955 
		202.731,66.079 205.339,58.131 198.582,52.879 206.846,52.895 	"/>
</g>
<g>
	<polygon fill="#FECC0B" points="178.607,119.487 181.338,127.547 189.652,127.547 182.89,132.799 185.492,140.747 178.641,135.623 
		171.784,140.747 174.392,132.799 167.633,127.547 175.898,127.563 	"/>
</g>
<g>
	<polygon fill="#FECC0B" points="417.222,119.487 419.952,127.547 428.267,127.547 421.505,132.799 424.106,140.747 
		417.255,135.623 410.398,140.747 413.006,132.799 406.248,127.547 414.513,127.563 	"/>
</g>
<g>
	<polygon fill="#FECC0B" points="194.607,157.452 197.338,165.512 205.652,165.512 198.89,170.764 201.492,178.712 194.641,173.588 
		187.784,178.712 190.392,170.764 183.633,165.512 191.898,165.527 	"/>
</g>
<g>
	<polygon fill="#FECC0B" points="399.222,157.452 401.952,165.512 410.267,165.512 403.505,170.764 406.106,178.712 
		399.255,173.588 392.398,178.712 395.006,170.764 388.248,165.512 396.513,165.527 	"/>
</g>
<g>
	<polygon fill="#FECC0B" points="366.948,186.938 369.68,194.999 377.993,194.999 371.231,200.25 373.834,208.198 366.982,203.074 
		360.125,208.198 362.733,200.25 355.976,194.999 364.24,195.014 	"/>
</g>
<g>
	<polygon fill="#FECC0B" points="226.675,186.938 229.406,194.999 237.72,194.999 230.958,200.25 233.561,208.198 226.709,203.074 
		219.852,208.198 222.46,200.25 215.702,194.999 223.966,195.014 	"/>
</g>
<g>
	<polygon fill="#FECC0B" points="186.607,77.972 189.338,86.032 197.652,86.032 190.89,91.283 193.492,99.231 186.641,94.108 
		179.783,99.231 182.391,91.283 175.633,86.032 183.898,86.047 	"/>
</g>
<g>
	<polygon fill="#FECC0B" points="408.222,77.972 410.952,86.032 419.267,86.032 412.505,91.284 415.106,99.232 408.255,94.108 
		401.398,99.232 404.006,91.284 397.248,86.032 405.513,86.047 	"/>
</g>
<g>
	<ellipse fill-rule="evenodd" clip-rule="evenodd" fill="none" cx="297.271" cy="108.821" rx="95.106" ry="73.847"/>
	<path fill="#FECC0B" d="M226.751,37.6l2.791,4.539l7.729-4.753l1.514,2.463l-7.729,4.753l3.06,4.977l8.225-5.058l1.729,2.811
		l-11.353,6.981l-10.822-17.601l11.28-6.936l1.729,2.811L226.751,37.6z"/>
	<path fill="#FECC0B" d="M249.726,22.482l3.404-1.376l5.153,12.741c1.078,2.667,1.312,4.624,0.7,5.873
		c-0.611,1.249-2.398,2.472-5.359,3.669c-3.128,1.265-5.343,1.688-6.645,1.267s-2.482-1.94-3.542-4.56l-5.238-12.952l3.404-1.376
		l5.238,12.952c0.572,1.413,1.17,2.212,1.797,2.4s1.815-0.073,3.568-0.782c1.796-0.727,2.847-1.375,3.151-1.944
		c0.305-0.57,0.155-1.603-0.451-3.1L249.726,22.482z"/>
	<path fill="#FECC0B" d="M263.515,39.495l-4.494-20.167l9.313-2.075c2.315-0.516,4.007-0.443,5.074,0.219s1.852,2.115,2.352,4.361
		c0.455,2.039,0.546,3.482,0.274,4.328c-0.271,0.846-1.053,1.563-2.346,2.151l0.029,0.133c2.125-0.329,3.463,0.743,4.014,3.215
		l0.991,4.447l-3.584,0.798l-0.819-3.679c-0.463-2.078-1.654-2.904-3.573-2.476l-5.162,1.15l1.514,6.796L263.515,39.495z
		 M264.867,28.68l5.148-1.147c1.227-0.273,1.989-0.689,2.286-1.246s0.289-1.54-0.025-2.949c-0.321-1.438-0.7-2.328-1.14-2.669
		c-0.439-0.341-1.245-0.381-2.417-0.121l-5.397,1.203L264.867,28.68z"/>
	<path fill="#FECC0B" d="M287.332,14.471c3.507-0.25,5.809,0.212,6.906,1.383c1.097,1.172,1.8,3.917,2.107,8.234
		c0.335,4.721,0.041,7.731-0.886,9.032s-3.336,2.088-7.23,2.365c-3.507,0.25-5.818-0.195-6.932-1.335
		c-1.114-1.14-1.817-3.773-2.111-7.9c-0.35-4.912-0.065-8.033,0.854-9.363S283.391,14.751,287.332,14.471z M287.287,17.843
		c-2.461,0.175-3.875,0.615-4.242,1.318c-0.367,0.704-0.408,3.054-0.124,7.05c0.21,2.959,0.58,4.724,1.108,5.293
		c0.528,0.569,1.98,0.77,4.356,0.601c2.272-0.162,3.61-0.598,4.015-1.31c0.404-0.711,0.484-2.789,0.239-6.231
		c-0.246-3.452-0.605-5.478-1.079-6.077C291.087,17.889,289.663,17.674,287.287,17.843z"/>
	<path fill="#FECC0B" d="M298.291,34.77l1.364-20.617l7.781,0.515l0.962,0.063c2.612,0.173,4.341,0.775,5.188,1.807
		c0.846,1.032,1.177,2.938,0.992,5.717c-0.183,2.759-0.737,4.563-1.665,5.412c-0.928,0.849-2.712,1.186-5.353,1.011l-0.85-0.041
		l-4.315-0.286l-0.44,6.661L298.291,34.77z M302.613,25.059l4.173,0.276c1.66,0.11,2.728-0.024,3.202-0.402
		c0.476-0.378,0.763-1.328,0.863-2.848c0.115-1.742,0.001-2.834-0.344-3.277c-0.346-0.442-1.301-0.715-2.866-0.819l-4.541-0.301
		L302.613,25.059z"/>
	<path fill="#FECC0B" d="M320.987,19.6l-1.018,5.23l8.907,1.733l-0.553,2.838l-8.906-1.733l-1.116,5.735l9.477,1.844l-0.63,3.239
		l-13.082-2.546l3.947-20.281l12.998,2.53l-0.63,3.239L320.987,19.6z"/>
	<path fill="#FECC0B" d="M340.959,38.864l-7.897-2.712l-2.428,3.359l-3.674-1.262l12.798-17.451l5.216,1.791l-0.528,21.665
		l-3.607-1.239L340.959,38.864z M341.094,35.853l0.331-11.266l-6.606,9.11L341.094,35.853z"/>
	<path fill="#FECC0B" d="M371.753,35.902L361.48,53.829l-5.4-3.095l0.84-12.586c0.043-0.626,0.161-1.698,0.355-3.215l0.196-1.597
		l0.209-1.59l-0.123-0.07l-0.629,1.21l-0.633,1.19l-1.322,2.365l-5.893,10.283l-3.186-1.826l10.272-17.927l5.4,3.094l-0.842,11.591
		c-0.076,1.026-0.188,2.259-0.337,3.697l-0.195,1.825l-0.203,1.837l0.11,0.063l0.625-1.177l0.626-1.177l1.3-2.325l5.915-10.323
		L371.753,35.902z"/>
</g>
</svg>
